#!OML:ASF H:\Terrain\Patient Classification 1\Takeo\Monday\TakeoMonday.ASF
:FULLY-SPECIFIED
:DEGREES
1240
root 9.79823 17.7541 -1.2674 -6.32921 1.2337 -1.31638
lowerback 8.2702 3.23352 7.67635
upperback 7.28075 4.77855 -2.19238
thorax 3.86294 2.83064 -6.80745
lowerneck -8.65227 11.5494 5.70737
upperneck 33.4514 18.2249 -6.29957
head 14.0014 7.99235 -0.707644
rclavicle -6.75868e-014 1.07344e-014
rhumerus 17.6063 70.5451 -68.8647
rradius 116.71
rwrist -46.8277
rhand -7.20234 10.7373
rfingers 7.12502
rthumb 18.6762 -18.3861
lclavicle -6.75868e-014 1.07344e-014
lhumerus -27.6117 12.4687 80.8319
lradius 41.0896
lwrist 34.6717
lhand -19.449 21.0869
lfingers 7.12502
lthumb 6.87176 50.9554
rfemur 0.908023 -2.50503 21.4798
rtibia 20.7125
rfoot -14.2461 -19.6841
rtoes 2.58018
lfemur -3.72112 -2.01256 -18.2937
ltibia 25.3946
lfoot -12.3235 13.1687
ltoes -4.60652
1241
root 9.81244 17.755 -1.23927 -6.44371 0.968789 -1.05613
lowerback 7.54626 3.27312 7.04654
upperback 7.49533 4.73464 -1.76013
thorax 4.37721 2.78822 -5.93285
lowerneck -8.29127 11.5212 5.15951
upperneck 32.8023 18.3372 -6.68923
head 13.6321 7.97682 -0.792927
rclavicle 2.17669e-014 -1.0138e-014
rhumerus 17.9802 69.9855 -68.1394
rradius 117.757
rwrist -47.2992
rhand -6.50809 10.4417
rfingers 7.12502
rthumb 19.3439 -18.6162
lclavicle 2.17669e-014 -1.0138e-014
lhumerus -27.3631 12.9308 81.6177
lradius 40.9241
lwrist 34.5388
lhand -20.4781 22.2792
lfingers 7.12502
lthumb 5.87825 52.1776
rfemur 1.17544 -2.34651 21.1557
rtibia 20.6355
rfoot -14.2465 -19.6604
rtoes 3.19723
lfemur -3.24449 -1.91106 -18.6356
ltibia 25.0368
lfoot -12.256 13.3227
ltoes -4.63767
1242
root 9.82312 17.7576 -1.2157 -6.46554 0.709353 -0.962819
lowerback 7.11085 3.31083 6.84452
upperback 7.488 4.74028 -1.52067
thorax 4.56744 2.77748 -5.53632
lowerneck -8.11821 11.4621 4.99081
upperneck 32.4439 18.3514 -7.03206
head 13.4649 7.94796 -0.911782
rclavicle 4.14466e-014 -3.57812e-015
rhumerus 17.4032 69.4172 -68.5764
rradius 118.825
rwrist -47.5338
rhand -6.7725 10.1296
rfingers 7.12502
rthumb 19.0896 -18.9536
lclavicle 4.14466e-014 -3.57812e-015
lhumerus -27.5231 13.1464 82.017
lradius 40.8524
lwrist 34.4675
lhand -20.587 23.0898
lfingers 7.12502
lthumb 5.7731 52.9912
rfemur 1.28541 -2.14153 21.0444
rtibia 20.6176
rfoot -14.249 -19.6455
rtoes 3.43843
lfemur -2.86349 -1.82488 -18.7664
ltibia 24.588
lfoot -12.0975 13.476
ltoes -5.88782
1243
root 9.83112 17.7645 -1.18834 -6.48647 0.549339 -0.70219
lowerback 6.64217 3.3526 6.4592
upperback 7.49793 4.74642 -1.35777
thorax 4.78439 2.76128 -5.11636
lowerneck -8.12957 11.4051 4.89859
upperneck 32.2387 18.3008 -7.17153
head 13.3811 7.90902 -0.960427
rclavicle 4.5149e-014 3.57812e-015
rhumerus 16.7217 68.8779 -69.1257
rradius 119.781
rwrist -47.3083
rhand -7.81027 10.1853
rfingers 7.12502
rthumb 18.0914 -18.9933
lclavicle 4.5149e-014 3.57812e-015
lhumerus -27.6368 13.5796 82.2932
lradius 40.6298
lwrist 34.1049
lhand -20.3642 23.2311
lfingers 7.12502
lthumb 5.98818 53.1264
rfemur 1.42935 -1.97981 20.7288
rtibia 20.5523
rfoot -14.3095 -19.5093
rtoes 2.88729
lfemur -2.48601 -1.83634 -19.0943
ltibia 24.1956
lfoot -12.0592 13.7088
ltoes -6.23685
1244
root 9.83862 17.7709 -1.15973 -6.59735 0.341872 -0.396398
lowerback 6.28935 3.35601 6.00506
upperback 7.50429 4.70963 -1.20584
thorax 4.92199 2.71707 -4.67918
lowerneck -8.14531 11.4617 4.62522
upperneck 32.0693 18.3836 -7.09485
head 13.2771 7.93214 -0.879682
rclavicle -1.53561e-014 1.83876e-014
rhumerus 16.2708 68.3806 -69.5587
rradius 120.69
rwrist -47.302
rhand -8.25634 10.2479
rfingers 7.12502
rthumb 17.6622 -18.9699
lclavicle -1.53561e-014 1.83876e-014
lhumerus -27.5664 14.2805 82.3909
lradius 40.0788
lwrist 33.3742
lhand -19.8434 22.6963
lfingers 7.12502
lthumb 6.49097 52.5768
rfemur 1.64534 -1.78175 20.3747
rtibia 20.5313
rfoot -14.3366 -19.3948
rtoes 2.21102
lfemur -2.02226 -1.94833 -19.4658
ltibia 23.8418
lfoot -12.2314 13.8951
ltoes -4.41202
